<?xml version="1.0" encoding="UTF-8" standalone="no"?>
<!-- Created with Inkscape (http://www.inkscape.org/) -->

<svg
   width="178.93369mm"
   height="116.16183mm"
   viewBox="0 0 178.93369 116.16183"
   version="1.1"
   id="svg424"
   xmlns="http://www.w3.org/2000/svg"
   xmlns:svg="http://www.w3.org/2000/svg">
  <defs
     id="defs421" />
  <g
     id="layer1"
     transform="translate(-14.651145,-19.315405)">
    <path
       id="path9122"
       style="fill:#040404;fill-opacity:1;stroke:#090909;stroke-width:0;stroke-linecap:square;stroke-linejoin:miter;stroke-dasharray:none;stroke-opacity:1"
       d="m 117.80701,19.315731 c -0.53121,0.0083 -1.12605,0.150348 -2.13642,0.412417 -0.50284,0.13042 -0.99462,0.264016 -1.38336,0.371642 -0.38874,0.107624 -0.63745,0.174531 -0.79171,0.233179 -0.0699,0.02657 -0.47647,0.133184 -0.98878,0.243373 -0.5123,0.110195 -1.16433,0.239689 -1.85482,0.36867 -1.38099,0.257958 -2.92592,0.515901 -3.84554,0.630306 -2.0276,0.252247 -4.8508,0.43131 -6.19985,0.468907 l -1.226636,0.0344 c -0.160946,-0.0028 -0.323793,-0.0056 -0.475702,-0.0081 -0.407055,-0.007 -0.998955,-0.03668 -1.314979,-0.06498 -0.3161,-0.02862 -0.654435,-0.04098 -0.751355,-0.02931 -0.18041,0.02335 -1.19273,-0.07656 -2.70216,-0.267583 -0.467249,-0.059 -0.925391,-0.101312 -1.016815,-0.09344 -0.09169,0.008 -0.595817,-0.07005 -1.120449,-0.172442 -0.524632,-0.102612 -1.064342,-0.190231 -1.199026,-0.194953 -0.565007,-0.02023 -2.885245,-0.566434 -6.197726,-1.458964 -1.014718,-0.273547 -1.65919,-0.396049 -2.222636,-0.409019 -0.18782,-0.0044 -0.366198,0.003 -0.546633,0.02166 -3.255857,0.335653 -5.273567,2.609043 -5.1584,5.812916 0.01521,0.429879 0.04459,0.837971 0.06583,0.906809 0.02047,0.06892 0.09339,0.440092 0.162674,0.824409 0.104541,0.578496 0.603785,2.562781 0.699537,2.778189 0.122905,0.278834 0.585659,2.046488 0.742011,2.838925 0.377988,1.918448 0.377464,4.272318 -0.0013,5.821836 -0.0909,0.371901 -0.180518,0.821218 -0.196652,0.998551 -0.01705,0.177305 -0.254447,1.107116 -0.527945,2.065484 -0.817243,2.863951 -1.310344,4.651915 -1.416064,5.134615 -0.284754,1.299614 -0.555391,2.771535 -0.546209,2.951905 0.0066,0.112147 -0.01955,0.458532 -0.05904,0.770043 -0.09037,0.713528 -0.09064,1.328057 0,2.434578 0.14683,1.793869 0.70573,3.302041 1.764347,4.759151 0.478844,0.659172 1.662605,2.364822 2.127071,3.065733 0.924906,1.395695 1.232739,1.873226 1.504834,2.332642 0.175399,0.296152 0.408814,0.666003 0.518601,0.821436 0.243606,0.344724 1.248208,1.872762 1.325597,2.016639 0.03082,0.05706 0.223204,0.344956 0.427707,0.639651 0.99941,1.440188 2.299822,3.424871 2.935765,4.480524 0.44066,0.731472 1.681677,2.691139 1.967795,3.107783 0.05273,0.07673 0.3523,0.515974 0.666409,0.975615 1.784255,2.611295 3.066207,4.000777 4.491991,4.870855 0.441133,0.269156 0.940318,0.586289 1.109407,0.70421 l 0.0025,0.0013 c 0.506914,0.354023 2.358286,1.03503 3.445446,1.267408 0.506701,0.108305 0.985896,0.1793 1.456415,0.215765 v 0.01444 l 1.06099,0.06371 0.0408,-0.0051 c 2.57558,-0.33246 4.37245,-1.300596 6.43303,-3.450967 0.90368,-0.943073 1.44746,-1.547023 2.58748,-3.358377 1.14,-1.811367 2.89682,-4.851184 6.30986,-10.76532 3.71062,-6.429694 4.19364,-7.224925 5.62858,-9.289368 0.71327,-1.026143 1.53836,-2.369457 1.8803,-3.079325 0.53956,-1.120059 0.61922,-1.412121 0.72248,-2.661811 0.1622,-1.962435 -0.15949,-3.615644 -1.29884,-6.824634 -1.68787,-4.753861 -1.77196,-5.663043 -1.01979,-10.867682 0.58656,-4.058706 0.50395,-7.380217 -0.29987,-9.691592 -0.37444,-1.076742 -1.09973,-1.902266 -2.10328,-2.377239 -0.51768,-0.245018 -0.94431,-0.397681 -1.47552,-0.389481 z m 0.0153,0.873678 c 0.37306,-0.0058 0.60037,0.07743 1.08647,0.307508 0.80519,0.381101 1.34474,0.988452 1.65222,1.872654 0.72264,2.077969 0.83408,5.303112 0.25909,9.281723 -0.75624,5.232787 -0.63761,6.502238 1.06056,11.285196 1.12558,3.170164 1.40146,4.625833 1.24999,6.458513 -0.10218,1.236287 -0.10431,1.246548 -0.63795,2.354303 -0.28652,0.594835 -1.12316,1.969038 -1.81106,2.958701 -1.44289,2.075868 -1.95542,2.922419 -5.66681,9.353503 -3.41292,5.913861 -5.17115,8.953379 -6.29202,10.734315 -1.12085,1.780923 -1.58243,2.283625 -2.48003,3.220337 -1.97409,2.060128 -3.48222,2.864255 -5.88979,3.179138 l -0.13846,-0.0076 v -1.293741 c 0,-0.751882 -0.004,-1.155863 0.003,-1.434753 0.0756,0.01456 0.1427,0.04561 0.22001,0.05649 0.17868,0.02518 0.3531,0.06851 0.58698,-0.05649 0.11701,-0.06243 0.20828,-0.172441 0.25612,-0.26376 0.0479,-0.09129 0.0678,-0.166744 0.0871,-0.243372 v -0.0025 c 0.0857,-0.341471 0.009,-0.646864 -0.14356,-0.942911 -0.14004,-0.270783 -0.35904,-0.509856 -0.58911,-0.72757 -0.11503,-0.10887 -0.22997,-0.206727 -0.34616,-0.287121 -0.016,-0.0105 -0.0489,-0.01165 -0.0637,-0.02294 -0.004,-0.06925 -0.007,-0.129978 -0.008,-0.243373 -0.004,-0.331895 -0.002,-0.832222 -0.002,-1.47298 0,-0.928223 -0.12483,-1.394764 -0.19198,-1.706158 0.9895,0.152876 1.74512,0.418407 3.06106,0.376315 0.65388,-0.02085 1.03961,-0.03294 1.38634,-0.09472 0.34671,-0.06165 0.62818,-0.177149 0.99642,-0.358476 0.8143,-0.40089 1.74583,-1.238548 2.49787,-2.077801 0.37601,-0.419621 0.69945,-0.838191 0.92719,-1.214316 0.11386,-0.188055 0.20476,-0.363731 0.26419,-0.543235 0.0594,-0.179505 0.10831,-0.37347 0.0178,-0.609494 -0.0703,-0.183387 -0.2439,-0.372664 -0.45107,-0.438327 -0.20715,-0.06571 -0.39989,-0.03262 -0.57636,0.02549 -0.35297,0.116215 -0.70632,0.357625 -1.14764,0.719925 -1.10116,0.904024 -1.78622,1.346755 -2.29017,1.532017 -0.0559,0.0206 -0.30056,0.06771 -0.60227,0.08962 -0.30171,0.02177 -0.67471,0.03068 -1.07076,0.02846 -0.79211,-0.0053 -1.67736,-0.05457 -2.29016,-0.123173 l -0.51011,-0.05606 -0.0204,-0.607371 v -0.74286 l 1.11705,-0.02039 c 1.37199,-0.02571 2.27749,-0.08568 3.06913,-0.351255 0.79165,-0.26563 1.42059,-0.734859 2.198,-1.483173 2.08399,-2.006008 3.5625,-4.827497 4.86746,-8.787332 -0.009,0.306186 -0.0264,0.654752 -0.0153,0.843098 0.0173,0.292519 0.0754,0.533699 0.22043,0.714827 0.10665,0.133084 0.24179,0.262938 0.45107,0.319826 0.20928,0.05693 0.4467,-0.01159 0.59931,-0.1202 0.30522,-0.218015 0.47295,-0.535875 0.71228,-1.01469 1.21244,-2.425628 0.76887,-5.195249 -1.14254,-7.106658 -1.21363,-1.213633 -3.08628,-1.904738 -4.63216,-1.64967 -0.34808,0.05745 -0.62407,0.137375 -0.85286,0.268858 -0.22881,0.131496 -0.45987,0.382578 -0.44088,0.704634 0.019,0.322059 0.23083,0.522086 0.45362,0.671081 0.22278,0.148994 0.5032,0.266407 0.85584,0.371643 0.87518,0.261168 1.63281,0.654148 2.24642,1.155278 0.17843,0.145739 0.27781,0.236697 0.35635,0.312604 -0.0155,0.0118 0.002,-0.0051 -0.0183,0.0081 -0.14706,0.0947 -0.3942,0.226341 -0.72757,0.402224 -2.9413,1.551851 -4.46502,1.904813 -8.21564,1.905783 l -1.10176,-0.07943 v -0.179238 c 0,-0.230148 -0.0608,-0.327761 -0.10746,-0.471456 0.64144,-0.11005 1.36553,-0.342023 2.3182,-1.147632 0.2942,-0.248774 0.58951,-0.486133 0.82271,-0.660887 0.11662,-0.08736 0.21817,-0.158809 0.2918,-0.207695 0.0241,-0.016 0.0429,-0.02502 0.0633,-0.03568 0.027,0.0012 0.0741,0.0034 0.13166,0.01784 0.12265,0.03043 0.2951,0.09237 0.49439,0.181786 0.42427,0.190391 0.72016,0.31289 1.06566,0.292218 0.17275,-0.0105 0.37782,-0.08948 0.50714,-0.238276 0.12932,-0.148758 0.1744,-0.317464 0.1924,-0.471455 0.0371,-0.317861 -0.086,-0.594564 -0.24889,-0.829932 -0.16287,-0.235381 -0.37869,-0.44382 -0.62734,-0.627758 -0.49731,-0.367873 -1.1161,-0.64734 -1.74226,-0.645596 -0.3895,7.74e-4 -0.77695,0.08547 -1.19393,0.282024 -0.41699,0.196529 -0.87222,0.496399 -1.48827,0.945034 -0.15393,0.112149 -0.27475,0.193468 -0.40986,0.287121 -0.003,-0.143825 -0.005,-0.239569 -0.008,-0.42516 -0.0118,-0.766979 -0.0217,-1.878981 -0.0306,-3.251342 -0.0178,-2.744747 -0.0306,-6.532383 -0.0306,-10.698213 v -14.70273 l 0.41751,-0.01274 c 1.39106,-0.03877 4.20607,-0.215768 6.28182,-0.474004 0.96034,-0.119468 2.50637,-0.380353 3.89907,-0.6405 0.69635,-0.130078 1.35373,-0.258927 1.87775,-0.371642 0.52404,-0.112713 0.88117,-0.192884 1.1145,-0.281599 0.015,-0.0058 0.332,-0.101708 0.71483,-0.207696 0.38282,-0.105984 0.86967,-0.236847 1.36808,-0.366121 1.00071,-0.259562 1.56119,-0.381174 1.93423,-0.386933 z m -6.38163,5.164772 c -1.24812,0 -1.49775,0.05629 -2.34157,0.474003 -0.81796,0.404966 -1.44553,0.861891 -3.5941,2.615516 -0.83006,0.677466 -1.34049,0.926106 -1.93424,0.996427 -0.3936,0.04662 -0.67694,-0.03979 -0.85839,-0.184335 -0.18144,-0.144542 -0.29179,-0.353721 -0.29179,-0.686371 0,-0.391528 -0.0899,-0.745219 -0.34361,-1.001949 -0.25365,-0.25673 -0.69443,-0.315254 -1.03211,-0.161399 -0.28319,0.12903 -0.51375,0.38768 -0.62775,0.694441 -0.11399,0.306762 -0.1478,0.656664 -0.14611,1.09624 0.004,0.902925 0.3391,1.706481 0.93781,2.282948 0.59872,0.576467 1.4438,0.922805 2.43883,1.016814 1.5846,0.14971 2.96122,-0.43567 5.15203,-2.105833 0.96549,-0.73605 1.49976,-1.118758 1.86755,-1.293742 0.36779,-0.174981 0.58079,-0.184816 1.11451,-0.169044 0.95218,0.02813 1.73079,0.328629 2.5259,1.032529 0.79508,0.703898 1.59008,1.829511 2.45156,3.471355 0.44096,0.840421 0.70426,1.324668 0.93017,1.639475 0.11294,0.157405 0.217,0.282546 0.37122,0.37674 0.15424,0.09419 0.36388,0.120944 0.50501,0.09981 0.30852,-0.0462 0.50216,-0.172473 0.66853,-0.437901 0.11189,-0.178522 0.0925,-0.267445 0.0973,-0.374191 0.005,-0.106745 2.2e-4,-0.220398 -0.0106,-0.348283 -0.0211,-0.255769 -0.0648,-0.566789 -0.12785,-0.91233 -0.12618,-0.691082 -0.32243,-1.5086 -0.54323,-2.187807 -0.89096,-2.74071 -2.62264,-4.746336 -4.90102,-5.584834 -0.77841,-0.286485 -1.18267,-0.348282 -2.308,-0.348282 z m 0,0.873678 c 1.10318,0 1.26708,0.02239 2.00602,0.294342 1.98998,0.732369 3.54317,2.489361 4.37052,5.034378 0.2037,0.626642 0.39608,1.422213 0.5152,2.074827 0.0595,0.326308 0.10047,0.620728 0.11765,0.830357 0.007,0.07404 0.005,0.118523 0.005,0.166495 -0.021,-0.02216 -0.0184,-0.01378 -0.0565,-0.06668 -0.15817,-0.220382 -0.42818,-0.700088 -0.86603,-1.534565 -0.88737,-1.691214 -1.72421,-2.905849 -2.64653,-3.722374 -0.92231,-0.816526 -1.9458,-1.216921 -3.07932,-1.250418 -0.56421,-0.01667 -1.01235,0.0111 -1.51673,0.251018 -0.5044,0.239971 -1.05087,0.64907 -2.02131,1.388882 -2.1335,1.626479 -3.201,2.058157 -4.53956,1.931692 -0.84031,-0.0794 -1.48362,-0.362568 -1.91343,-0.776414 -0.42983,-0.413849 -0.6661,-0.95858 -0.66896,-1.655191 -10e-4,-0.387358 0.0377,-0.649001 0.0896,-0.788732 0.0519,-0.139733 0.0814,-0.16388 0.17202,-0.205146 0.0404,-0.01842 0.0439,-0.02419 0.0446,-0.02718 -0.002,0.0024 -0.003,0.0055 10e-4,0.0093 0.0173,0.01758 0.0922,0.145974 0.0922,0.386933 0,0.553247 0.22445,1.055425 0.62011,1.370619 0.39564,0.31519 0.93203,0.436715 1.50653,0.368669 0.78842,-0.09338 1.49515,-0.459673 2.38489,-1.185859 2.14225,-1.748462 2.68395,-2.142645 3.42803,-2.511031 0.83443,-0.413066 0.71248,-0.383958 1.95463,-0.38396 z m -12.771772,3.799675 c 0.02453,-0.0037 0.04605,-0.0026 0.06244,0.0042 0.09772,0.04101 0.05562,0.170885 -0.23318,0.722473 -0.386317,0.737785 -0.826476,1.412055 -0.981137,1.502286 -0.05443,0.03186 -0.211343,0.189572 -0.348281,0.350831 -0.304665,0.358865 -1.048646,0.966114 -1.731219,1.412242 -0.96907,0.633534 -1.880289,1.060354 -4.03158,1.889644 -2.732166,1.053215 -5.797762,2.304806 -6.256339,2.553928 -1.044558,0.567483 -1.779261,1.069074 -2.473654,1.688745 -0.798211,0.712354 -1.897043,2.15984 -2.217538,2.921324 v 8.49e-4 c -0.230818,0.547391 -0.368213,0.292128 -0.242948,-0.450218 0.305568,-1.811393 1.699938,-3.923898 3.575839,-5.419188 0.299025,-0.238481 0.588089,-0.459329 0.643049,-0.490993 0.05496,-0.0317 0.386029,-0.228487 0.736064,-0.437051 0.854311,-0.509369 1.071168,-0.615694 2.404847,-1.174817 1.362613,-0.572911 2.253837,-0.861942 3.743185,-1.221536 1.53417,-0.370546 2.662185,-0.766951 3.66376,-1.287795 0.842677,-0.43822 1.069881,-0.583567 1.870531,-1.194778 1.157389,-0.883714 1.372731,-1.052472 1.557926,-1.226209 0.08303,-0.07815 0.184784,-0.133142 0.258238,-0.143985 z m 10.143082,4.105484 c -0.41113,-0.0093 -0.82853,0.02383 -1.25509,0.09811 -1.00365,0.174781 -1.76054,0.513668 -2.6771,1.188407 -1.74092,1.281588 -2.87774,3.561022 -3.15365,6.174365 -0.038,0.360386 -0.0442,0.667096 -0.005,0.937814 0.0392,0.270717 0.12301,0.524488 0.32789,0.716952 0.20489,0.192451 0.51257,0.251952 0.7709,0.207696 0.25833,-0.0442 0.50141,-0.160736 0.76622,-0.327895 2.0155,-1.27232 4.67175,-1.942078 7.36022,-1.83443 1.70314,0.06821 2.70937,0.293522 4.56251,1.019789 0.64369,0.252288 1.02648,0.402865 1.41691,0.402223 0.19522,-3.28e-4 0.43107,-0.07452 0.57891,-0.238276 0.14782,-0.163816 0.19076,-0.3458 0.21534,-0.509682 0.0274,-0.182467 -0.0133,-0.267389 -0.0463,-0.371642 -0.033,-0.104279 -0.0785,-0.211395 -0.13336,-0.330444 -0.10991,-0.238097 -0.25997,-0.519318 -0.44045,-0.824834 -0.36093,-0.611047 -0.83392,-1.3126 -1.2861,-1.880725 -0.40042,-0.503105 -1.1723,-1.322278 -1.77029,-1.882847 -1.78569,-1.67389 -3.44988,-2.504494 -5.23146,-2.544585 z m -0.007,0.868582 c 1.54296,0.01954 2.9403,0.721634 4.63895,2.313954 0.56003,0.524984 1.34258,1.356954 1.68577,1.788132 0.41715,0.524127 0.87669,1.207155 1.21686,1.783035 0.17011,0.287954 0.30948,0.549916 0.39968,0.74541 0.0341,0.07385 0.054,0.126007 0.0718,0.174565 -0.12815,-0.01719 -0.42775,-0.08665 -0.99133,-0.307507 -1.89941,-0.744406 -3.07464,-1.007982 -4.84452,-1.078826 -2.85493,-0.114379 -5.67196,0.584863 -7.86268,1.967795 -0.20793,0.13126 -0.36965,0.194258 -0.44555,0.20727 -0.0255,0.0044 -0.0252,0.0049 -0.0297,0.0064 -0.003,-0.0067 -0.037,-0.05501 -0.0573,-0.195804 -0.0229,-0.158975 -0.0228,-0.404832 0.0106,-0.719924 0.25493,-2.414555 1.31547,-4.469165 2.79985,-5.561899 0.85036,-0.626004 1.41143,-0.873355 2.31056,-1.02998 0.37705,-0.06566 0.74102,-0.0971 1.09709,-0.09259 z m -12.141883,0.578914 c 0.113329,-0.0051 0.07499,0.36499 -0.121898,1.258063 -0.09707,0.439834 -0.18872,0.92852 -0.204723,1.086046 -0.01561,0.157445 -0.172354,0.739865 -0.347857,1.295016 -0.691361,2.187773 -1.884178,3.752599 -3.493441,4.58246 -0.817952,0.421758 -2.2062,0.647533 -3.200375,0.5203 -0.294683,-0.03778 -0.626108,-0.06598 -0.737339,-0.06074 -0.111099,0.0039 -0.576872,-0.05773 -1.035503,-0.137614 -1.054302,-0.183308 -1.967621,-0.230269 -2.74251,-0.141861 -1.481217,0.168997 -2.706521,0.565945 -3.458614,1.121299 -0.18719,0.138134 -0.351354,0.248232 -0.363147,0.241674 -0.01312,-0.0053 -0.03481,-0.133668 -0.04885,-0.284997 -0.01679,-0.180973 0.08155,-0.523448 0.286271,-0.998551 0.472113,-1.096357 1.316768,-2.01235 2.782861,-3.016889 1.12394,-0.770148 2.763773,-1.23497 5.873653,-1.663685 2.088302,-0.287852 4.070113,-0.969326 5.025883,-1.729095 0.187703,-0.149331 0.422806,-0.335256 0.521574,-0.412842 0.247856,-0.194635 0.834053,-0.975416 0.966271,-1.28652 0.05981,-0.141133 0.167932,-0.297437 0.23955,-0.347858 0.0223,-0.01563 0.04206,-0.02348 0.05819,-0.02421 z m -4.09444,13.460685 -4.25e-4,4.25e-4 c 0.02584,9.04e-4 0.04291,0.0092 0.05012,0.02718 0.01797,0.04394 -0.225222,0.363887 -0.540262,0.711431 -1.180945,1.30284 -2.203076,2.972039 -3.562673,5.815464 -0.826622,1.728639 -1.155172,2.512721 -1.73504,4.143285 -0.393387,1.106193 -0.754935,2.162013 -0.803598,2.346659 h -0.0025 c -0.105722,0.400495 -0.286184,0.392853 -0.26546,-0.01147 0.0105,-0.147053 0.0051,-0.383828 -0.0093,-0.526671 -0.01404,-0.142593 0.01969,-0.553726 0.07518,-0.913179 0.05549,-0.35948 0.101086,-0.743603 0.101086,-0.852867 -5.12e-4,-0.600579 0.358066,-1.673566 1.326021,-3.966595 1.060772,-2.512894 1.075488,-2.538956 2.255765,-4.112279 0.529618,-0.706052 0.690276,-0.871134 1.695116,-1.73674 0.625449,-0.538853 1.234764,-0.930733 1.416065,-0.924647 z m 15.691813,1.583835 c 1.11596,2.16e-4 2.5362,0.567123 3.41105,1.441974 1.66556,1.66556 2.03933,3.977449 0.98113,6.094515 -0.16046,0.320996 -0.24397,0.409983 -0.32025,0.507558 -0.004,-0.03293 -0.004,3.03e-4 -0.008,-0.06668 -0.0131,-0.219298 -0.005,-0.602695 0.0229,-1.216863 0.0238,-0.525816 0.0371,-0.931369 0.0335,-1.229607 -0.002,-0.149125 -0.008,-0.268631 -0.0204,-0.37674 -0.0132,-0.108083 0.013,-0.188667 -0.12827,-0.37419 -0.0704,-0.09274 -0.28914,-0.21263 -0.46636,-0.17669 -0.17723,0.03594 -0.24167,0.122832 -0.2867,0.17669 -0.0901,0.107819 -0.11935,0.186679 -0.16395,0.292216 -0.0893,0.21109 -0.18604,0.503069 -0.30751,0.904261 -1.36277,4.500641 -2.88223,7.312204 -5.01611,9.366245 -0.74139,0.713647 -1.23461,1.073577 -1.86798,1.286096 -0.63336,0.212506 -1.4554,0.279565 -2.8075,0.304959 l -1.504831,0.02718 v -4.25e-4 c -0.503357,-0.0092 -1.193202,0.03473 -2.015364,0.07985 -0.967222,0.05285 -2.152287,0.291219 -3.568196,0.688069 -2.344394,0.657322 -3.459463,0.853924 -4.397276,0.735216 v 0.0013 c -0.452189,-0.05732 -1.47032,-0.354783 -1.752029,-0.612042 -0.680003,-0.620545 -1.155322,-2.353032 -1.277177,-3.588582 -0.106772,-1.083515 0.221944,-2.767707 0.716527,-3.672254 0.476953,-0.872203 1.27005,-2.023019 1.628007,-2.361525 0.18559,-0.175373 0.354373,-0.361748 0.377589,-0.413691 0.02217,-0.05208 0.288039,-0.303799 0.590381,-0.5598 2.534619,-2.145552 5.863066,-1.881377 9.227782,-1.561749 v 0.0098 l 1.959727,0.143136 h 0.0153 c 3.81031,-9.87e-4 5.61795,-0.421116 8.62593,-2.008145 0.33477,-0.176632 0.58918,-0.310532 0.79171,-0.440874 0.20252,-0.130382 0.39417,-0.247414 0.48419,-0.530069 0.045,-0.141321 0.0301,-0.312912 -0.0183,-0.435778 -0.0482,-0.122904 -0.11556,-0.209546 -0.18688,-0.289244 -0.14279,-0.159396 -0.3165,-0.295541 -0.53814,-0.476552 -0.71351,-0.582729 -1.57606,-1.026813 -2.54883,-1.317102 -0.23605,-0.07044 -0.37187,-0.141936 -0.49184,-0.207271 0.10231,-0.03764 0.18086,-0.0765 0.36867,-0.107457 0.14451,-0.02385 0.29801,-0.03571 0.45744,-0.03568 z m -12.557697,0.384809 c 0.139283,3.58e-4 0.279866,0.01155 0.420062,0.03398 0.330268,0.05286 1.020939,0.39322 2.110081,1.199026 0.537491,0.397576 0.962604,0.669322 1.323897,0.835877 0.0034,0.0046 0.0127,0.0178 0.01274,0.01784 2.1e-4,2.09e-4 0.307299,0.125722 0.307508,0.125722 0.222549,0 0.193509,-0.04106 0.230209,-0.05904 0.0367,-0.01797 0.0716,-0.03455 0.10788,-0.05606 0.0728,-0.0429 0.15745,-0.09996 0.25866,-0.166921 0.20242,-0.133936 0.46227,-0.313445 0.73522,-0.51223 0.59831,-0.435714 1.02144,-0.707181 1.34768,-0.860937 0.32624,-0.153755 0.54505,-0.199087 0.82229,-0.199625 0.33236,-9.04e-4 0.84343,0.200299 1.21686,0.476552 0.18672,0.13812 0.34088,0.293436 0.43026,0.422611 0.0433,0.06243 0.0348,0.07082 0.0488,0.110431 -0.0981,-0.02177 -0.20246,-0.03383 -0.48675,-0.161399 -0.23441,-0.105198 -0.4475,-0.18462 -0.64305,-0.233179 -0.19555,-0.04853 -0.36349,-0.09032 -0.59972,-0.01529 -0.15593,0.04945 -0.19374,0.09247 -0.28924,0.155878 -0.0955,0.06335 -0.20747,0.141666 -0.333,0.235728 -0.25102,0.188121 -0.55679,0.432559 -0.86348,0.691892 -1.02411,0.866012 -1.935536,1.155278 -2.180165,1.155278 -0.02717,0 -0.06014,9.3e-4 -0.105758,0.0081 -0.548694,-0.178336 -1.130407,-0.517473 -1.652642,-0.948431 -1.061532,-0.875968 -1.930704,-1.35584 -2.448594,-1.376565 -0.862891,-0.03423 -1.089701,0.041 -1.668782,0.554279 v 8.49e-4 c -0.198235,0.175647 -0.389026,0.309032 -0.42431,0.294341 -0.03542,-0.01377 0.01923,-0.223236 0.120624,-0.465084 0.313558,-0.748315 1.227688,-1.266086 2.202674,-1.263586 z m 4.217188,3.952155 c -8e-4,8.14e-4 -0.0017,0.0012 -0.003,0.0025 -0.03765,0.03731 -0.07351,0.06061 -0.10491,0.07645 -5.3e-5,-0.0044 4.4e-5,-0.02231 0,-0.02591 0.04,-0.0255 0.07949,-0.05028 0.107882,-0.05309 z m 74.520519,4.777838 c -2.21205,0.01373 -2.35501,0.05663 -10.81289,3.249219 -12.13847,4.581912 -22.41257,8.123051 -32.17662,11.089818 -1.52307,0.462785 -3.21625,1.00755 -3.76315,1.210918 -1.38534,0.515143 -1.97783,0.465694 -3.46837,-0.290518 -0.71361,-0.36203 -1.54412,-0.657651 -1.8459,-0.657064 -0.92696,0.0016 -2.20536,0.971875 -3.11245,2.362373 -0.78892,1.209343 -1.05583,1.398316 -3.04068,2.153404 -1.19671,0.455259 -2.17591,0.97642 -2.17591,1.157826 0,0.386825 0.82643,0.646486 2.0744,0.651543 0.72513,0.003 0.86096,0.08817 0.74073,0.465084 -0.97831,3.066848 -1.48252,5.075255 -1.77113,7.054838 -0.32932,2.25881 -0.43114,2.50123 -2.11264,5.01102 -1.9119,2.85369 -2.94896,4.08765 -3.43482,4.08765 -0.42205,0 -0.16792,-2.24647 0.522,-4.61517 1.03915,-3.56775 0.67511,-4.40607 -2.06973,-4.77019 -1.24351,-0.16495 -1.42605,-0.11875 -2.10372,0.53049 l -0.74201,0.711 -0.97519,-0.6613 c -1.20616,-0.81853 -2.96173,-1.11009 -4.208267,-0.6987 -1.472485,0.48597 -3.434374,3.50839 -4.788456,7.37722 -0.472388,1.3497 -1.005961,2.14358 -2.604048,3.87571 -2.813261,3.049213 -6.758026,5.712593 -7.444321,5.026303 -0.07262,-0.0727 0.363027,-0.85708 0.968395,-1.74396 1.823124,-2.670883 3.157476,-5.468043 3.157476,-6.619073 0,-0.82732 -0.182714,-1.21439 -0.921249,-1.95292 -1.042682,-1.04268 -2.682564,-1.59518 -4.001849,-1.34768 -1.686421,0.31637 -3.89989,3.15774 -5.002523,6.42198 -0.628279,1.859923 -3.527619,5.754963 -6.57404,8.831513 -2.994018,3.02359 -3.321004,2.37054 -1.333666,-2.66139 2.029606,-5.138953 1.992858,-4.80935 0.692742,-6.219823 -0.604873,-0.6562 -1.504497,-1.32668 -1.999226,-1.48997 -0.780491,-0.25757 -1.003231,-0.22292 -1.681949,0.26037 -0.873648,0.6221 -3.243458,4.106983 -5.969643,8.778843 -0.994578,1.70441 -1.917383,3.09886 -2.050618,3.09886 -0.31221,0 0.02036,-3.32513 0.404347,-4.04262 0.15815,-0.2955 0.871527,-1.35553 1.58511,-2.35558 4.284555,-6.004563 9.658599,-14.391093 12.572565,-19.619763 1.314948,-2.359476 1.780743,-2.975915 2.355154,-3.119251 1.387716,-0.346281 4.043217,-2.628826 4.826682,-4.148806 0.31708,-0.615172 0.504584,-1.517986 0.504584,-2.430756 0,-1.256694 -0.113196,-1.580874 -0.842248,-2.411218 -0.651641,-0.74218 -0.847158,-1.213161 -0.863485,-2.081623 -0.04261,-2.26493 -2.50047,-4.404895 -5.248444,-4.569719 -2.100204,-0.125972 -3.547933,0.612444 -5.171992,2.638451 l -1.181187,1.473404 -2.906883,0.452767 c -7.571237,1.179542 -15.993751,3.985752 -23.082621,7.689818 -7.652531,3.998596 -12.489212,7.509684 -18.070754,13.118773 -7.231797,7.2675 -10.365389,12.385413 -10.621761,17.348283 -0.196248,3.79904 1.12859,6.3935 3.605147,7.06037 1.657752,0.44639 2.048087,0.21741 1.315828,-0.77303 -0.466096,-0.63041 -0.579391,-1.12454 -0.559376,-2.44434 0.03172,-2.09127 0.685019,-3.84819 2.679225,-7.20392 4.600679,-7.741753 13.010416,-15.609653 23.497587,-21.984688 4.096956,-2.490496 12.265037,-6.622613 16.219761,-8.205021 1.910173,-0.764319 5.636212,-2.105833 5.848594,-2.105833 0.243663,0 -0.01584,0.733122 -1.001523,2.830006 -4.335377,9.222624 -9.326624,26.780596 -10.301511,36.238776 -0.286781,2.78232 -0.273798,3.13319 0.135915,3.75847 0.562792,0.85893 1.843462,0.92598 3.318026,0.17372 1.30779,-0.66719 1.984887,-1.49458 4.111005,-5.02333 1.727815,-2.86772 2.241748,-3.40937 2.241748,-2.3628 0,0.95997 1.042927,2.61508 2.156378,3.42166 0.914108,0.66218 1.334701,0.78788 2.640574,0.78788 2.720821,0 5.186895,-1.80181 7.646496,-5.58738 0.736467,-1.1335 1.394613,-2.06124 1.46236,-2.06124 0.06777,0 0.633983,0.45011 1.258489,0.99983 1.828462,1.60947 3.922805,2.51947 6.077525,2.64058 1.776814,0.0999 1.908486,0.0657 3.033029,-0.79002 0.646562,-0.492 1.79553,-1.77975 2.55308,-2.86143 2.390034,-3.41264 2.039477,-3.13619 2.866108,-2.26341 1.449603,1.53052 4.449108,2.34098 6.51925,1.76138 0.75784,-0.21219 1.40399,-0.6394 1.91555,-1.26571 2.01613,-2.468373 1.74174,-2.294323 3.0874,-1.95548 1.56082,0.39303 3.66995,0.39192 4.53616,-0.003 0.74012,-0.337223 1.36507,-1.238683 2.53609,-3.656113 0.41935,-0.86569 0.85814,-1.57364 0.97519,-1.57364 0.11703,0 0.36097,0.40969 0.54196,0.91021 0.18098,0.50052 0.68901,1.21231 1.12852,1.58213 0.98102,0.82548 2.73987,0.8992 4.3187,0.18094 1.96485,-0.89388 5.3133,-5.1074 7.97397,-10.03393 0.8619,-1.59591 1.23253,-2.024496 2.02428,-2.340291 0.53312,-0.212629 1.03439,-0.321774 1.11365,-0.24252 0.0793,0.07925 0.0123,0.992243 -0.14865,2.028951 -0.60678,3.91085 0.8325,5.54066 4.89294,5.54066 1.72716,0 1.78383,-0.0219 2.76502,-1.08476 0.55095,-0.59678 1.56013,-2.22865 2.2426,-3.62639 0.68244,-1.397736 1.28372,-2.593182 1.33621,-2.656288 0.0525,-0.0631 0.53881,0.307247 1.08011,0.823136 2.17245,2.070482 5.8275,3.367062 7.91067,2.805802 2.42142,-0.65242 6.21841,-6.018762 7.96845,-11.261841 0.90878,-2.722699 0.61666,-3.01635 -0.91021,-0.914878 -1.86657,2.569016 -6.34266,6.998833 -8.05084,7.967169 -1.25468,0.711246 -2.63718,1.082463 -2.63718,0.708033 0,-0.06559 0.52222,-0.866938 1.1608,-1.780487 1.80734,-2.585553 3.05852,-5.266434 3.05852,-6.553229 0,-0.922305 -0.15239,-1.255363 -0.89789,-1.958451 -1.02561,-0.96727 -2.95311,-1.60541 -4.03625,-1.336639 -1.62754,0.403855 -5.08747,5.130695 -5.08747,6.950355 0,1.386798 -4.40075,8.393118 -5.43491,8.652688 -0.36055,0.0905 -0.71749,0.10266 -0.79255,0.0276 -0.16497,-0.16498 0.1752,-1.94552 0.92677,-4.853864 0.62407,-2.414918 0.47867,-3.221212 -0.67533,-3.747008 -1.31014,-0.596939 -2.37172,-0.369376 -3.38429,0.725022 -1.1194,1.209885 -2.53831,2.029583 -3.12434,1.804696 -0.38185,-0.146519 -0.3841,-0.252245 -0.02,-1.123847 0.74917,-1.793033 -0.28378,-3.743003 -1.82041,-3.435678 -0.44291,0.08858 -1.01345,0.348662 -1.26741,0.578489 -0.62579,0.566336 -1.55071,2.585707 -1.55071,3.385134 0,0.682462 0.5016,1.989192 0.7675,1.999225 0.0855,0.0032 0.43521,0.221118 0.77726,0.484202 l 0.62224,0.478245 -3.1596,4.201474 c -4.32198,5.74791 -5.75672,6.96621 -6.2763,5.32915 -0.58039,-1.82865 2.76727,-10.547871 6.06393,-15.793757 l 0.92422,-1.470431 4.68992,-1.529894 c 2.57938,-0.841178 5.37542,-1.754049 6.21344,-2.028956 0.83802,-0.274908 2.14335,-0.66971 2.90094,-0.877502 1.45134,-0.39807 1.57003,-0.4326 8.23475,-2.38361 2.32088,-0.679409 4.45715,-1.298988 4.74726,-1.37699 0.29011,-0.078 2.30765,-0.646249 4.4835,-1.262735 2.17581,-0.616484 5.97353,-1.680789 8.43947,-2.364922 7.43096,-2.0616 14.21837,-4.117133 14.57688,-4.41469 0.27165,-0.225444 0.25639,-0.369833 -0.0777,-0.739038 -0.64026,-0.707487 -2.66671,-1.158691 -5.13631,-1.143386 z m -97.05141,6.689145 c 0.425925,0 0.80488,1.023273 0.632855,1.708706 -0.13658,0.54416 -0.326223,0.665134 -1.045697,0.665134 -0.483416,0 -0.955575,-0.123903 -1.049094,-0.275228 -0.184818,-0.299035 1.068826,-2.098612 1.461936,-2.098612 z m 30.82851,2.146607 c -0.0273,0.05312 -0.0367,0.08704 -0.0739,0.148657 -0.18379,0.303524 -0.48321,0.693259 -0.83291,1.083498 -0.69939,0.78049 -1.63188,1.580617 -2.23113,1.875628 -0.34623,0.170479 -0.51381,0.239694 -0.76367,0.284147 -0.24988,0.04447 -0.60888,0.06112 -1.26061,0.08197 -1.23928,0.03962 -1.89732,-0.222864 -3.04068,-0.384385 -0.07302,-0.0103 -0.138373,-0.01808 -0.203447,-0.02379 v -8.49e-4 c -0.0089,-3.23e-4 -0.01411,-5.15e-4 -0.02294,-8.5e-4 -0.02182,-0.0016 -0.04351,-0.0046 -0.06583,-0.0051 -0.01481,-4.03e-4 -0.03148,-3.43e-4 -0.04757,-4.25e-4 -0.227021,-0.01019 -0.45022,-0.02246 -0.609919,-0.02761 -0.221477,-0.0092 -0.782009,-0.04474 -1.245322,-0.112555 -1.076916,-0.150831 -2.126296,-0.355981 -3.787357,-0.565746 -0.854994,-0.107952 -2.802092,-0.05361 -3.426334,0.105758 v -8.49e-4 c -0.292021,0.07451 -0.443004,0.04968 -0.387782,-0.0807 0.105984,-0.248643 3.166516,-0.873058 4.367545,-0.769619 0.247461,0.01968 0.529081,0.03051 0.625634,0.02251 0.422794,-0.04053 3.507127,0.304998 4.219737,0.390755 0.03849,0.0044 0.06997,0.0047 0.107458,0.0081 l 1.108557,0.126147 c 0.65824,0.07385 1.55855,0.123122 2.38276,0.127845 0.41211,0.0026 0.80413,-0.0065 1.13999,-0.03058 0.33585,-0.02426 0.60072,-0.05282 0.84055,-0.141012 0.67661,-0.248735 1.41553,-0.751484 2.54373,-1.677701 0.3077,-0.252604 0.49375,-0.346462 0.66344,-0.43323 z M 75.504734,70.10081 c 0.08467,-0.0064 0.174384,-0.0033 0.270131,0.0085 0.255317,0.03147 0.554909,0.125412 0.925496,0.266309 l 0.668107,0.253567 -0.667682,1.790256 c -1.432246,3.837469 -1.817347,4.463171 -3.381312,5.501586 -0.810304,0.538016 -1.472979,1.045714 -1.472979,1.128519 0,0.08281 0.309929,0.398113 0.688494,0.699962 l 0.688071,0.548333 -1.997527,3.944934 c -2.277605,4.498011 -3.915304,7.546411 -6.087294,11.329371 -1.532675,2.66946 -2.258739,3.66876 -2.258739,3.10906 0,-0.84679 8.565504,-21.55137 11.078775,-26.779517 0.598131,-1.24425 0.953787,-1.755767 1.546459,-1.800874 z m 24.542856,5.780212 c 0.0212,0.01154 0.0445,0.02446 0.0442,0.02421 -2.5e-4,-1.83e-4 0.0117,0.01299 0.0178,0.01784 -0.0214,-0.0137 -0.042,-0.02771 -0.062,-0.04205 z m -0.804445,0.742011 c 0.159118,-0.0053 0.321528,0.01594 0.481648,0.06201 10e-4,-5.7e-5 0.004,0.0017 0.01274,0.0038 0.0041,0.0012 0.0082,0.0021 0.01232,0.0034 0.01294,0.0043 0.02776,0.01006 0.04205,0.01996 0.06231,0.04315 0.153037,0.117076 0.243377,0.202597 0.18065,0.170952 0.36855,0.409565 0.41241,0.494392 0.0399,0.07713 0.0411,0.153825 0.0489,0.225534 -0.16536,-0.03161 -0.38873,-0.09029 -0.39967,-0.09514 -0.0604,-0.02615 -0.157828,-0.05733 -0.282026,-0.04035 v -0.01869 c -0.04184,-0.0105 -0.05848,-0.0089 -0.09599,-0.01741 -0.395303,-0.137005 -1.226597,-0.0028 -1.588083,0.302836 -0.271886,0.229177 -0.355497,0.118223 -0.196652,-0.260787 0.224986,-0.536762 0.74589,-0.863486 1.309032,-0.882174 z m 0.567869,0.06328 c 0.0033,5.69e-4 0.01689,0.003 0.01699,0.003 -0.01405,0 -0.006,-6.43e-4 -0.01699,-8.49e-4 z m 50.873426,0.08282 c 0.0373,0.0029 0.073,0.01061 0.10618,0.02336 0.41485,0.159185 0.41431,0.242805 -0.007,1.298838 -0.50407,1.264262 -1.71367,3.46243 -2.83426,5.150755 -1.00495,1.514088 -1.46533,1.482165 -1.46533,-0.102361 0,-1.850975 2.85057,-6.168255 4.08255,-6.364646 0.0411,-0.0065 0.0803,-0.0088 0.11764,-0.0059 z m 34.83799,5.696964 -7.05738,2.640574 c -3.88158,1.452118 -7.7692,2.857676 -8.63953,3.123916 -2.21342,0.6771 -2.63655,1.54432 -2.61679,5.36355 0.0127,2.46297 0.0948,2.9366 0.74116,4.28515 0.76916,1.6047 1.38835,1.99318 2.66564,1.67261 0.72346,-0.18158 3.96015,-2.86374 4.8666,-4.03286 1.03099,-1.32974 6.72875,-6.96707 6.80638,-6.73417 0.0767,0.23011 -0.67738,1.92118 -3.59836,8.07123 -0.88663,1.86678 -1.61186,3.424983 -1.61186,3.462863 0,0.0379 -0.72389,1.5965 -1.6089,3.46329 -3.77609,7.9651 -6.30348,13.79389 -6.30348,14.53909 0,0.7299 0.56081,1.36274 1.4509,1.63692 1.04897,0.32313 3.2007,0.0625 4.36796,-0.52922 0.90536,-0.45892 1.20268,-0.85239 4.01459,-5.30535 1.10438,-1.74891 4.53083,-7.66759 5.90296,-10.1966 0.52567,-0.96888 1.0452,-1.88009 1.15443,-2.02514 0.10923,-0.14506 1.20212,-2.222593 2.4282,-4.616013 3.53798,-6.90634 5.40674,-11.602286 5.0586,-12.712308 -0.0774,-0.246878 -0.81723,-0.780835 -1.64373,-1.186708 -1.24513,-0.611449 -1.92044,-0.753849 -3.93984,-0.829507 z M 54.462521,82.844119 c -0.586218,-0.0053 -2.484536,0.495534 -3.280649,0.897889 -1.621457,0.819478 -2.544065,1.715051 -3.602598,3.496839 -1.324421,2.22934 -3.020052,6.49489 -3.941536,9.91542 -0.117232,0.43517 -0.454956,1.68178 -0.750506,2.7697 -0.52094,1.917613 -0.703892,2.789523 -1.520124,7.252343 -1.450187,7.92901 -2.195023,17.36429 -1.73674,21.99403 0.261761,2.64438 0.396022,3.15943 1.123848,4.29364 0.45485,0.70883 1.079964,1.4669 1.388457,1.6845 0.308501,0.21758 0.798062,0.36251 1.08817,0.32195 0.510884,-0.0715 0.524691,-0.23989 0.437901,-5.34869 -0.149029,-8.77195 1.330537,-18.29252 4.590531,-29.53901 1.786104,-6.161753 4.590005,-13.926322 6.04482,-16.739635 0.241061,-0.466158 0.385932,-0.899749 0.32195,-0.963722 -0.02316,-0.02318 -0.07977,-0.03451 -0.163524,-0.03525 z m 49.479019,7.587878 c 0.23149,0.033 0.43552,0.20122 0.60355,0.51521 0.67285,1.25723 -1.32531,7.44338 -3.05809,9.467753 -0.86456,1.01004 -1.607647,1.34384 -2.036176,0.91531 -0.394547,-0.39455 -0.129994,-2.387553 0.609496,-4.594783 1.35783,-4.05283 2.87813,-6.44663 3.88122,-6.30349 z m 54.08102,0.63413 c -0.76312,0.0187 -1.46338,0.12773 -2.13344,0.32535 -0.292,0.0861 -0.88802,1.02016 -1.49719,2.34496 -1.39972,3.04409 -3.35105,6.0036 -6.39692,9.703063 -1.42502,1.73079 -2.55468,3.33891 -2.51019,3.57372 0.12277,0.64809 1.97808,0.68587 3.41572,0.0697 0.66004,-0.28292 1.71134,-1.00108 2.33646,-1.59573 0.6251,-0.59464 1.18976,-1.02822 1.25425,-0.96372 0.0645,0.0645 -0.18896,0.92513 -0.56277,1.91258 -1.69546,4.47874 -5.44425,16.58979 -5.44425,17.58868 0,0.75835 0.50935,1.21788 1.65009,1.4887 0.47054,0.1117 0.93894,0.21493 1.0406,0.22978 0.48345,0.0706 3.0408,-0.61451 3.55758,-0.95311 0.7568,-0.49588 1.26765,-1.39222 2.92939,-5.13971 3.35712,-7.57089 8.1416,-21.651393 8.63655,-25.416543 0.20915,-1.59098 -0.12019,-2.05368 -1.77921,-2.50041 -1.77734,-0.47859 -3.22479,-0.6984 -4.49667,-0.66726 z m -70.984601,4.3718 c 0.229747,-0.008 0.368357,0.14017 0.366546,0.4638 -0.0038,0.6779 -1.129161,2.98097 -2.466859,5.048823 -1.382912,2.13779 -1.627604,2.33278 -2.017063,1.60507 -0.508808,-0.95069 0.633573,-3.699083 2.436702,-5.862603 0.661714,-0.79399 1.297762,-1.24168 1.680674,-1.25509 z" />
  </g>
</svg>
